<?xml version="1.0" encoding="utf-8" ?><svg xmlns="http://www.w3.org/2000/svg" xmlns:xlink="http://www.w3.org/1999/xlink" width="1024" height="1024" viewBox="0 0 1024 1024"><path fill="#E3F3F6" d="M742.473 249.151C753.651 249.231 768.751 249.69 779.72 249.012C780.237 261.243 779.375 275.573 779.665 288.368C774.491 288.478 769.316 288.523 764.141 288.504C772.052 300.396 774.904 306.506 778.166 320.534C778.779 323.169 781.15 332.649 782.23 334.615C793.487 334.536 804.744 334.531 816.001 334.599L815.992 367.867C805.001 367.801 793.701 367.632 782.736 367.833C781.836 371.018 782.272 389.291 782.294 393.528L782.449 437.889L782.468 618.367L782.502 677.586C782.529 710.417 785.667 741.22 758.228 764.964C736.982 783.348 718.931 783.494 692.677 783.168C683.827 783.082 674.975 783.042 666.124 783.048L561.562 783.087L396.507 783.143L342.973 783.343C310.917 783.499 283.176 786.026 259.786 759.265C250.583 748.83 244.635 735.929 242.676 722.154C240.186 705.395 241.095 673.346 241.16 655.108L241.407 545.816L241.406 396.999L241.194 352.253C241.127 343.021 240.921 333.741 241.349 324.524C242.913 290.79 268.956 261.76 302.68 257.628C318.916 255.638 336.595 256.503 353.197 256.519L445.862 256.775L552.705 256.489C566.868 256.487 588.597 255.767 602.104 256.686C603.426 255.463 603.122 253.551 604.339 253.586C610.057 253.754 632.575 252.026 636.769 253.784C636.984 254.938 637.041 255.11 637.091 256.278C646.394 256.156 656.778 256.798 665.984 256.287C666.002 254.393 665.843 253.418 666.692 251.719C668.816 250.671 697.296 250.979 701.416 251.244C702.229 252.477 701.823 253.883 702.386 255.6C717.818 255.194 728.29 257.111 742.024 264.641L742.473 249.151Z"/><path fill="#BAE1F3" d="M742.473 249.151C753.651 249.231 768.751 249.69 779.72 249.012C780.237 261.243 779.375 275.573 779.665 288.368C774.491 288.478 769.316 288.523 764.141 288.504L741.458 288.239C741.573 280.372 741.762 272.505 742.024 264.641L742.473 249.151Z"/><path fill="#BAE1F3" d="M665.984 256.287C666.002 254.393 665.843 253.418 666.692 251.719C668.816 250.671 697.296 250.979 701.416 251.244C702.229 252.477 701.823 253.883 702.386 255.6C700.776 257.504 701.495 283.506 701.51 287.528L666.004 287.422L665.984 256.287Z"/><path fill="#BAE1F3" d="M602.104 256.686C603.426 255.463 603.122 253.551 604.339 253.586C610.057 253.754 632.575 252.026 636.769 253.784C636.984 254.938 637.041 255.11 637.091 256.278C636.325 266.892 636.485 276.743 636.509 287.365C626.23 287.55 613.298 287.671 603.16 287.076C603.59 277.943 603.758 266.261 602.868 257.286L602.104 256.686Z"/><path fill="#BAE1F3" d="M782.23 334.615C793.487 334.536 804.744 334.531 816.001 334.599L815.992 367.867C805.001 367.801 793.701 367.632 782.736 367.833C783.343 364.596 783.207 337.559 782.23 334.615Z"/><path fill="#BAE1F3" d="M701.971 288.981C714.728 288.937 728.383 289.068 741.059 288.485C740.982 301.738 741.061 315.453 740.585 328.651C734.744 328.712 720.159 328.575 715.068 329.306C717.27 330.976 719.629 332.219 721.675 334.125C736.563 347.994 746.137 363.408 745.953 384.329C745.861 394.79 746.034 405.127 746.03 415.391L746.02 484.719L746.061 620.691C746.075 643.804 746.266 667.095 746.045 690.162C745.846 707.696 742.028 720.268 729.093 732.316C713.442 746.894 697.641 747.326 677.289 747.039C668.615 746.917 659.394 747.029 650.641 747.026L556.852 746.94L407.656 746.953L360.531 747.014C335.243 747.07 310.873 750.363 292.201 729.744C285.003 721.84 280.299 711.988 278.677 701.422C276.879 689.054 277.518 664.306 277.502 650.982L277.484 561.795L277.482 420.62L277.438 376.666C277.39 351.45 274.733 325.233 295.656 307.15C304.259 299.716 313.273 294.978 324.746 293.766C341.023 292.048 357.628 292.936 373.983 292.962L462.757 293.018L601.466 293.026L641.72 292.904C655.204 292.798 670.395 291.799 683.492 295.273C688.084 296.491 697.456 299.886 700.649 303.478L701.678 303.531C702.75 301.773 702.071 291.678 701.971 288.981Z"/><path fill="#BAE1F3" d="M701.971 288.981C714.728 288.937 728.383 289.068 741.059 288.485C740.982 301.738 741.061 315.453 740.585 328.651C734.744 328.712 720.159 328.575 715.068 329.306C714.946 329.498 714.407 329.967 714.214 330.147C704.559 328.067 699.518 331.017 701.331 317.707C701.767 314.503 702.067 306.961 700.426 304.106L700.649 303.478L701.678 303.531C702.75 301.773 702.071 291.678 701.971 288.981Z"/><path fill="#E3F3F6" d="M649.989 309.504L670.103 309.505C669.914 315.883 670.29 322.675 669.854 328.985L649.674 329.091C649.879 322.651 649.891 315.966 649.989 309.504Z"/><path fill="#E3F3F6" d="M717.707 345.736L730.316 345.58C730.543 351.343 730.373 358.031 730.341 363.872L725.625 363.916L711.952 364.036C711.695 358.003 711.582 351.965 711.615 345.926L717.707 345.736Z"/><path fill="#BAE1F3" d="M750.293 373.728C758.103 373.912 766.638 373.722 774.505 373.705L774.505 397.374C771.2 397.852 754.63 397.516 750.369 397.496C750.571 391.568 749.756 377.69 750.293 373.728Z"/><path fill="#BAE1F3" d="M750.988 309.468C758.477 309.679 765.972 309.678 773.461 309.464C773.69 317.187 773.562 325.385 773.561 333.146C765.949 333.378 758.618 333.207 751.001 333.056C751.115 325.272 751.005 317.27 750.988 309.468Z"/><path fill="#BAE1F3" d="M557.013 263.464L579.61 263.475C579.45 270.757 579.524 278.285 579.504 285.586L557.023 285.503C557.21 278.372 557.04 270.638 557.013 263.464Z"/><path fill="#BAE1F3" d="M702.678 209.24C711.852 209.666 730.452 209.609 739.572 209.127C739.584 213.909 740.105 246.172 738.887 247.727L736.772 247.738L701.996 247.753C701.957 242.518 701.14 211.524 702.678 209.24Z"/><path fill="#BAE1F3" d="M794.089 235.121C805.673 235.558 818.049 235.35 829.693 235.346C829.969 239.447 830.495 269.504 829.703 271.944L827.875 272.253C816.543 272.378 805.211 272.322 793.881 272.083C793.992 261.905 793.103 244.583 794.089 235.121Z"/><path fill="#BAE1F3" d="M775.588 183.576C785.108 183.079 799.18 183.509 809.036 183.513C809.037 194.094 809.172 205.397 808.922 215.986C808.894 217.18 808.96 216.864 808.014 217.62C798.407 217.932 784.49 217.053 775.498 217.923C775.469 206.707 775.231 194.731 775.588 183.576Z"/><path fill="#BAE1F3" d="M830.466 289.52L862.21 289.556C861.839 299.793 862.299 311.136 862.266 321.52C851.615 321.448 840.964 321.455 830.314 321.542C829.959 311.989 830.151 299.13 830.466 289.52Z"/><path fill="#BAE1F3" d="M791.715 287.695C799.781 288.034 809.787 287.59 818.126 287.659C818.116 291.082 818.486 315.983 818.057 318.06L817.081 318.512L788.612 318.542C788.548 309.212 788.18 297.941 788.645 288.76C789.548 287.645 789.802 287.979 791.715 287.695Z"/><path fill="#BAE1F3" d="M759.768 145.204C763.303 144.702 775.332 145.46 780.5 145.176C781.078 149.316 781.528 165.895 780.444 170.408C780.307 170.976 779.449 170.883 778.625 170.999L755.04 171.005C755.012 165.867 754.642 150.539 755.25 145.992C756.405 145.1 758.191 145.275 759.768 145.204Z"/><path fill="#BAE1F3" d="M640.998 220.379C648.024 220.673 658.766 220.587 665.698 220.313C665.628 224.434 666.458 242.039 665.403 245.211C657.223 245.053 648.967 245.642 640.794 245.028C640.573 236.811 640.641 228.59 640.998 220.379Z"/><path fill="#BAE1F3" d="M807.828 128.897C813.251 129.14 820.437 128.925 825.991 128.911L826.053 147.008C820.239 146.79 813.885 146.922 808.022 146.935L807.828 128.897Z"/><path fill="#BAE1F3" d="M855.948 207.966C861.997 207.961 868.046 207.922 874.095 207.849C873.948 213.664 874.074 219.644 874.123 225.473L856.011 225.481L855.948 207.966Z"/><path fill="#BAE1F3" d="M680.994 154.642L698.547 154.489L698.522 172.465C692.674 172.475 686.825 172.45 680.977 172.389C680.852 166.251 680.773 160.777 680.994 154.642Z"/><path fill="#BAE1F3" d="M873.345 162.405C879.134 162.598 885.188 162.478 890.999 162.45C891.246 167.814 891.079 174.591 891.071 180.056L873.427 179.99C873.367 174.129 873.34 168.267 873.345 162.405Z"/><path fill="#BAE1F3" d="M820.456 378.217C826.303 378.217 832.151 378.147 837.997 378.006C837.961 382.151 838.271 391.689 837.82 395.357C832.129 395.508 826.078 395.448 820.357 395.485C820.266 392.358 819.954 381.003 820.456 378.217Z"/></svg>