<svg width="256" height="291" viewBox="0 0 256 291" fill="none" xmlns="http://www.w3.org/2000/svg">
<path d="M139.314 231.241C133.065 237.489 122.935 237.489 116.686 231.241L83.8992 198.454C52.7059 167.261 0 189.311 0 233.412V274.958C0 283.795 7.16344 290.958 16 290.958H240C248.837 290.958 256 283.795 256 274.958V153.182C256 138.928 238.766 131.789 228.686 141.868L139.314 231.241Z" fill="#191919"/>
<path d="M116.686 59.7171C122.935 53.4687 133.065 53.4687 139.314 59.7171L172.101 92.5042C203.294 123.697 256 101.647 256 57.5462V16C256 7.16343 248.837 0 240 0H16C7.16344 0 0 7.16344 0 16V137.776C0 152.03 17.2343 159.169 27.3137 149.09L116.686 59.7171Z" fill="#191919"/>
</svg>
